<?xml version="1.0" encoding="UTF-8" standalone="no"?>
<svg
   xmlns:dc="http://purl.org/dc/elements/1.1/"
   xmlns:cc="http://creativecommons.org/ns#"
   xmlns:rdf="http://www.w3.org/1999/02/22-rdf-syntax-ns#"
   xmlns:svg="http://www.w3.org/2000/svg"
   xmlns="http://www.w3.org/2000/svg"
   xmlns:sodipodi="http://sodipodi.sourceforge.net/DTD/sodipodi-0.dtd"
   xmlns:inkscape="http://www.inkscape.org/namespaces/inkscape"
   id="svg3"
   version="1.1"
   viewBox="0 0 260 260"
   height="260"
   width="260"
   sodipodi:docname="favicon.svg"
   inkscape:version="0.92.3 (2405546, 2018-03-11)">
  <sodipodi:namedview
     pagecolor="#ffffff"
     bordercolor="#666666"
     borderopacity="1"
     objecttolerance="10"
     gridtolerance="10"
     guidetolerance="10"
     inkscape:pageopacity="0"
     inkscape:pageshadow="2"
     inkscape:window-width="1600"
     inkscape:window-height="851"
     id="namedview71"
     showgrid="false"
     inkscape:zoom="0.99541212"
     inkscape:cx="370.11347"
     inkscape:cy="193.86173"
     inkscape:window-x="0"
     inkscape:window-y="0"
     inkscape:window-maximized="1"
     inkscape:current-layer="svg3" />
  <metadata
     id="metadata9">
    <rdf:RDF>
      <cc:Work
         rdf:about="">
        <dc:format>image/svg+xml</dc:format>
        <dc:type
           rdf:resource="http://purl.org/dc/dcmitype/StillImage" />
        <dc:title></dc:title>
      </cc:Work>
    </rdf:RDF>
  </metadata>
  <defs
     id="defs7" />
  <g
     id="g11"
     transform="translate(0,-188)" />
  <g
     id="g107"
     transform="matrix(0.43825619,0,0,0.43825619,5.0969858,116.74744)">
    <path
       inkscape:connector-curvature="0"
       style="fill:#626b70;fill-opacity:1"
       d="M 350.5,436.34808 C 311.64136,434.10855 273.38436,421.42903 241.5,400.22219 224.76577,389.09197 201,368.40284 201,364.9652 201,364.38419 207.52431,364 217.39112,364 h 16.39111 l 4.84056,4 c 2.6623,2.2 5.13223,4 5.48873,4 0.35651,0 2.51683,-2.475 4.80073,-5.5 2.2839,-3.025 4.37879,-5.5 4.65533,-5.5 1.414,0 5.43242,3.41206 5.43242,4.6127 0,0.76047 -1.575,3.57496 -3.5,6.25442 -1.925,2.67945 -3.5,5.17093 -3.5,5.5366 0,1.07322 15.34899,10.596 17.07906,10.59615 0.91736,7e-5 2.56667,-2.10844 3.93582,-5.03164 3.0411,-6.49287 4.20662,-7.44982 7.1712,-5.88792 3.7377,1.96922 3.81486,2.97485 0.70153,9.14234 -1.62609,3.22126 -2.71771,6.24323 -2.42584,6.7155 0.54305,0.87867 17.07719,8.06185 18.55666,8.06185 0.45018,0 1.79189,-2.925 2.98157,-6.5 1.97485,-5.93443 2.40634,-6.5 4.95909,-6.5 4.60413,0 5.44856,2.031 3.46314,8.32949 -0.94559,2.99975 -1.45876,6.13294 -1.14037,6.96264 0.36103,0.94083 4.04879,2.32318 9.7993,3.67324 10.56095,2.47941 10.46345,2.52759 11.48853,-5.67684 0.77532,-6.20549 1.98927,-7.506 5.98992,-6.41702 2.82852,0.76993 2.92445,0.98734 2.52156,5.71443 -0.90636,10.63423 -1.39071,9.80359 6.25725,10.73097 3.76114,0.45606 7.47364,0.58545 8.25,0.28753 C 352.69598,411.17943 353,408.46309 353,398.99245 v -12.07032 l 8.75,0.28894 8.75,0.28893 0.5,12 0.5,12 7.5,-0.31102 c 4.125,-0.17107 7.83186,-0.63793 8.23747,-1.03747 0.4056,-0.39954 0.23874,-3.55772 -0.3708,-7.01818 -1.18945,-6.75258 -0.88942,-7.51655 3.34332,-8.51323 3.31385,-0.78031 4.26493,0.69735 5.2785,8.20105 0.39532,2.92663 1.23463,5.51845 1.86513,5.75961 0.63051,0.24115 5.19638,-0.57837 10.14638,-1.82115 10.15658,-2.54999 10.14685,-2.53419 7.42732,-12.0635 -1.54014,-5.39671 -0.76442,-6.65149 4.13014,-6.6808 2.25816,-0.0135 2.79464,0.71612 4.58423,6.23469 1.71532,5.28956 2.35819,6.21364 4.18343,6.01341 C 431.84229,399.8227 445,393.74346 445,392.32811 c 0,-0.76703 -1.125,-3.61468 -2.5,-6.32811 -1.375,-2.71343 -2.5,-5.38692 -2.5,-5.94108 0,-0.8697 5.01505,-4.05892 6.38265,-4.05892 0.26508,0 1.9663,2.7 3.78048,6 1.81419,3.3 3.84554,6 4.51412,6 1.41834,0 11.86475,-5.9988 15.32315,-8.79924 l 2.37419,-1.92251 -3.68729,-5.0231 c -4.38927,-5.97937 -4.5597,-7.63742 -1.02328,-9.95458 2.64565,-1.73349 2.68187,-1.7225 5.25,1.59386 1.42229,1.83667 3.51635,4.47411 4.65347,5.86097 l 2.06749,2.52156 4.33255,-3.13848 L 488.30008,366 h 15.84996 C 516.83237,366 520,366.27128 520,367.35743 c 0,0.74659 -3.9375,5.14634 -8.75,9.77722 -37.77257,36.3471 -88.33194,57.2971 -142.75,59.15052 -6.6,0.22478 -14.7,0.25309 -18,0.0629 z"
       id="path319"
       transform="translate(0,-188)" />
    <path
       inkscape:connector-curvature="0"
       style="fill:#626b70;fill-opacity:1"
       d="m 250.20898,112.99609 c -8.85985,-0.10757 -20.15039,0.34375 -21.00976,1.20313 C 228.36103,115.03741 228,120.46988 228,132.2168 v 16.81836 L 203.25,148.76758 178.5,148.5 178.22461,132.07227 c -0.16847,-10.04176 -0.70263,-16.94219 -1.37305,-17.75 -0.87951,-1.05975 -9.93882,-1.31894 -45.72461,-1.30665 -24.54516,0.008 -45.177872,0.36497 -45.851559,0.79297 -0.869067,0.55213 -1.304803,5.70358 -1.5,17.73438 L 83.5,148.5 58.75,148.76758 c -13.6125,0.14711 -24.834993,0.14711 -24.939453,0 C 33.706086,148.62047 33.368586,140.625 33.060547,131 L 32.5,113.5 l -14,-0.28711 c -7.7,-0.15814 -15.0125,-0.0366 -16.25,0.26953 L 0,114.03906 V 227.52344 341.00781 L 130.75,340.75391 261.5,340.5 261.75391,227.5625 c 0.20196,-89.69003 -0.004,-113.1039 -1,-113.73633 -0.78786,-0.50021 -5.22901,-0.76553 -10.54493,-0.83008 z M 24.5,183.5 H 131 237.5 l 0.25781,66.25 0.25586,66.25 H 131 23.986328 l 0.25586,-66.25 z"
       id="path305"
       transform="translate(0,-188)" />
    <path
       inkscape:connector-curvature="0"
       style="fill:#626b70;fill-opacity:1"
       d="m 39,290.6306 c 0,-10.39984 0.256923,-12.51521 1.581787,-13.02361 3.167997,-1.21568 29.959302,-0.66304 31.762059,0.65517 1.492601,1.09142 1.687554,2.81621 1.44113,12.75 L 73.5,302.5 56.25,302.77361 39,303.04723 Z"
       id="path301"
       transform="translate(0,-188)" />
    <path
       inkscape:connector-curvature="0"
       style="fill:#626b70;fill-opacity:1"
       d="m 89,290.6306 c 0,-10.39984 0.256923,-12.51521 1.581787,-13.02361 3.167997,-1.21568 29.959303,-0.66304 31.762063,0.65517 1.4926,1.09142 1.68755,2.81621 1.44113,12.75 L 123.5,302.5 106.25,302.77361 89,303.04723 Z"
       id="path299"
       transform="translate(0,-188)" />
    <path
       inkscape:connector-curvature="0"
       style="fill:#626b70;fill-opacity:1"
       d="M 138.61586,301.44133 C 138.27714,300.55863 138,295.40537 138,289.98964 138,276.58344 137.42661,277 155.8803,277 c 10.28728,0 15.25866,0.38112 16.46355,1.26216 1.4926,1.09142 1.68755,2.81621 1.44113,12.75 L 173.5,302.5 l -17.13414,0.27312 c -14.96726,0.23857 -17.21203,0.0702 -17.75,-1.33179 z"
       id="path297"
       transform="translate(0,-188)" />
    <path
       inkscape:connector-curvature="0"
       style="fill:#626b70;fill-opacity:1"
       d="M 188.61586,301.44133 C 188.27714,300.55863 188,295.40537 188,289.98964 188,276.58344 187.42661,277 205.8803,277 c 10.28728,0 15.25866,0.38112 16.46355,1.26216 1.4926,1.09142 1.68755,2.81621 1.44113,12.75 L 223.5,302.5 l -17.13414,0.27312 c -14.96726,0.23857 -17.21203,0.0702 -17.75,-1.33179 z"
       id="path295"
       transform="translate(0,-188)" />
    <path
       inkscape:connector-curvature="0"
       style="fill:#626b70;fill-opacity:1"
       d="M 39,250.5 V 237.95277 L 56.25,238.22639 73.5,238.5 v 12 12 L 56.25,262.77361 39,263.04723 Z"
       id="path293"
       transform="translate(0,-188)" />
    <path
       inkscape:connector-curvature="0"
       style="fill:#626b70;fill-opacity:1"
       d="m 89,250.5 v -12.54723 l 17.25,0.27362 17.25,0.27361 v 12 12 l -17.25,0.27361 -17.25,0.27362 z"
       id="path291"
       transform="translate(0,-188)" />
    <path
       inkscape:connector-curvature="0"
       style="fill:#626b70;fill-opacity:1"
       d="m 138.61586,261.44133 c -0.9059,-2.36074 -0.72079,-20.72773 0.2239,-22.2163 0.61533,-0.96958 4.86343,-1.20911 17.73469,-1 L 173.5,238.5 v 12 12 l -17.13414,0.27312 c -14.96726,0.23857 -17.21203,0.0702 -17.75,-1.33179 z"
       id="path289"
       transform="translate(0,-188)" />
    <path
       inkscape:connector-curvature="0"
       style="fill:#626b70;fill-opacity:1"
       d="m 188.61586,261.44133 c -0.9059,-2.36074 -0.72079,-20.72773 0.2239,-22.2163 0.61533,-0.96958 4.86343,-1.20911 17.73469,-1 L 223.5,238.5 v 12 12 l -17.13414,0.27312 c -14.96726,0.23857 -17.21203,0.0702 -17.75,-1.33179 z"
       id="path287"
       transform="translate(0,-188)" />
    <path
       inkscape:connector-curvature="0"
       style="fill:#ff0000;fill-opacity:1"
       d="M 89.223167,222.82317 C 88.403722,222.00372 88,217.88191 88,210.33518 c 0,-10.11373 0.197649,-11.37059 1.934259,-12.3 2.27986,-1.22014 30.963171,-1.38691 32.847891,-0.19098 0.95639,0.60687 1.21047,3.96949 1,13.23469 L 123.5,223.5 l -16.52683,0.27317 c -12.009385,0.1985 -16.861176,-0.0612 -17.750003,-0.95 z"
       id="path285"
       transform="translate(0,-188)" />
    <path
       inkscape:connector-curvature="0"
       style="fill:#8dc044;fill-opacity:1"
       d="m 189.57143,222.42857 c -1.22504,-1.22503 -1.56805,-3.81511 -1.55612,-11.75 0.008,-5.59821 0.37943,-10.75231 0.82445,-11.45354 0.61533,-0.96958 4.86343,-1.20911 17.73469,-1 L 223.5,198.5 l 0.28498,11.48784 c 0.24642,9.93379 0.0515,11.65858 -1.44113,12.75 C 221.13896,223.61888 216.16758,224 205.8803,224 c -12.06434,0 -15.02247,-0.28503 -16.30887,-1.57143 z"
       id="path283"
       transform="translate(0,-188)" />
    <path
       inkscape:connector-curvature="0"
       style="fill:#ffd700;fill-opacity:1"
       d="M 139,210.52361 V 198 h 16.98095 c 19.92219,0 18.27451,-1.34135 17.8114,14.5 l -0.29235,10 -17.25,0.27361 -17.25,0.27362 z"
       id="path281"
       transform="translate(0,-188)" />
    <path
       inkscape:connector-curvature="0"
       style="fill:#626b70;fill-opacity:1"
       d="m 545.28955,152.75 c -0.52544,-0.6875 -2.46253,-4.9625 -4.30464,-9.5 -3.81352,-9.39345 -4.31762,-9.63531 -11.98491,-5.75 -2.71343,1.375 -5.16192,2.5 -5.44108,2.5 -0.27916,0 -1.22239,-1.38233 -2.09607,-3.07183 -1.95085,-3.77254 -1.28167,-4.73441 5.50538,-7.91329 2.76747,-1.29621 5.03177,-2.93887 5.03177,-3.65035 0,-1.50758 -8.66501,-16.03946 -10.08855,-16.91926 -0.52993,-0.32751 -3.20284,1.01332 -5.93979,2.97963 C 513.2347,113.3912 510.34693,115 509.55439,115 508.17898,115 505,111.37729 505,109.80989 c 0,-0.40981 2.46567,-2.6067 5.47926,-4.88198 6.26237,-4.72814 6.26391,-4.70449 -0.81641,-12.524944 l -4.41831,-4.880181 -8.44054,8.238607 C 492.1617,100.29263 487.92881,104 487.39757,104 486.18444,104 476,93.75694 476,92.536825 c 0,-0.495157 3.70737,-4.698528 8.23861,-9.340825 l 8.23861,-8.440541 -4.88019,-4.418314 c -7.82045,-7.080318 -7.7968,-7.078776 -12.52494,-0.816408 C 472.79681,72.534332 470.59992,75 470.19011,75 468.5605,75 465,71.794434 465,70.327273 c 0,-0.857625 1.60694,-3.748405 3.57097,-6.423954 1.96403,-2.67555 3.30487,-5.295205 2.97962,-5.821455 C 470.66739,56.652812 456.13354,48 454.61641,48 c -0.72197,0 -2.07713,1.6875 -3.01148,3.75 -0.93435,2.0625 -2.50443,4.811945 -3.48906,6.109877 -1.73494,2.286992 -1.88792,2.309363 -4.95305,0.72432 -3.80381,-1.967028 -3.88315,-2.898036 -0.68891,-8.084197 4.24975,-6.89987 3.75138,-7.799689 -6.61872,-11.950246 -5.02964,-2.013079 -9.47432,-3.297806 -9.87707,-2.854949 -0.40276,0.442857 -1.52895,3.280195 -2.50266,6.305195 -2.08486,6.477 -2.82269,7.123519 -6.61922,5.80004 -3.31948,-1.157175 -3.4523,-2.233346 -1.16945,-9.475361 1.04001,-3.299293 1.32759,-5.686448 0.75,-6.225676 -1.21472,-1.134043 -18.53096,-5.158834 -19.53243,-4.539895 -0.42041,0.25983 -1.07046,2.922114 -1.44454,5.916188 -0.91772,7.345158 -2.26968,9.092324 -6.04702,7.814687 -3.1735,-1.073397 -3.35876,-1.987142 -2.1341,-10.526206 0.78509,-5.474086 0.58223,-5.598968 -9.7787,-6.019974 l -6,-0.243803 -0.5,12 -0.5,12 -8.71891,0.288479 -8.71891,0.28848 -0.28109,-12.28848 L 352.5,24.5 l -6,0.243803 c -10.56569,0.429326 -10.67198,0.499817 -9.85111,6.533001 1.15845,8.514257 1.07498,8.944716 -1.93251,9.966528 -3.90552,1.326919 -5.36265,-0.256643 -6.16811,-6.703269 -0.37108,-2.970054 -1.20875,-5.825798 -1.86148,-6.346099 -0.76788,-0.612084 -4.36004,-0.188964 -10.1767,1.198712 -10.25813,2.447276 -10.57769,2.877017 -7.97224,10.721274 1.78161,5.363942 1.115,7.445826 -2.53785,7.925885 -3.22461,0.423779 -3.89711,-0.218648 -5.53745,-5.289835 -2.63032,-8.131711 -2.74705,-8.171349 -12.41017,-4.214175 -4.64619,1.902676 -8.84318,3.854979 -9.32666,4.338451 -0.50538,0.505387 0.39563,3.404139 2.11968,6.819471 3.15553,6.251053 3.08386,7.253833 -0.65932,9.225943 -2.96458,1.5619 -4.1301,0.604951 -7.1712,-5.88792 C 271.71867,50.264297 270.05192,48 269.31099,48 c -0.74092,0 -4.3765,1.874494 -8.07906,4.165543 -13.04693,8.0731 -12.19159,7.835831 -28.19337,7.820802 C 218.40188,59.972598 214,59.491527 214,57.905666 214,56.454653 231.15722,42.668778 241.61465,35.717216 284.2702,7.3620051 335.27602,-4.4740978 388.96669,1.5235914 451.05008,8.4588166 508.19145,43.869439 544.27764,97.770106 554.0825,112.41529 570,146.25618 570,152.45633 570,153.76125 568.16294,154 558.12244,154 c -8.32586,0 -12.16322,-0.37378 -12.83289,-1.25 z"
       id="path259"
       transform="translate(0,-188)" />
    <path
       inkscape:connector-curvature="0"
       style="fill:#626b70;fill-opacity:1"
       d="m 47.052449,134.098 c -1.252025,-2.33943 -1.441497,-48.936587 -0.206897,-50.882339 0.603959,-0.951849 3.771275,-1.210729 12.234688,-1 L 70.5,82.5 v 26.5 26.5 l -11.197551,0.28226 c -10.269115,0.25886 -11.284814,0.11921 -12.25,-1.68426 z"
       id="path253"
       transform="translate(0,-188)" />
    <path
       inkscape:connector-curvature="0"
       style="fill:#626b70;fill-opacity:1"
       d="m 191.46359,134.76571 c -0.2744,-0.71507 -0.37846,-12.76739 -0.23125,-26.78292 L 191.5,82.5 l 11.76639,-0.281877 11.7664,-0.281877 -0.2664,26.781874 L 214.5,135.5 l -11.26875,0.28293 c -8.53192,0.21421 -11.38992,-0.0328 -11.76766,-1.01722 z"
       id="path23"
       transform="translate(0,-188)" />
    <path
       inkscape:connector-curvature="0"
       style="fill:#8dc044;fill-opacity:1"
       d="M 340.60699,150.41821 C 340.27314,149.54823 340,111.83823 340,66.61821 c 0,-62.61416 0.28613,-82.50434 1.2,-83.41821 0.84807,-0.84807 6.70329,-1.2 19.96482,-1.2 17.52876,0 18.833,0.12741 19.8,1.93426 1.43533,2.68194 1.43533,163.44954 0,166.13148 -0.96873,1.81008 -2.27795,1.93426 -20.39301,1.93426 -16.72932,0 -19.44025,-0.21478 -19.96482,-1.58179 z"
       id="path279" />
    <path
       inkscape:connector-curvature="0"
       style="fill:#8dc044;fill-opacity:1"
       d="M 290.67258,-30.66076 C 290.30266,-31.03067 290,-40.48333 290,-51.66667 V -72 h 60.62257 60.62257 l 6.29712,5.89065 c 7.11055,6.65157 17.63848,12.35909 26.19146,14.19921 3.17146,0.68232 6.34476,1.68459 7.0518,2.22728 0.92088,0.70682 1.20453,3.56735 1,10.08478 L 451.5,-30.5 l -80.07742,0.25591 c -44.04258,0.14075 -80.38008,-0.0468 -80.75,-0.41667 z"
       id="path261" />
  </g>
</svg>
